<svg width="36" height="36" viewBox="0 0 36 36" fill="none" xmlns="http://www.w3.org/2000/svg">
<path d="M17.7419 35.4839C27.5405 35.4839 35.4839 27.5405 35.4839 17.7419C35.4839 7.94334 27.5405 0 17.7419 0C7.94334 0 0 7.94334 0 17.7419C0 27.5405 7.94334 35.4839 17.7419 35.4839Z" fill="#8C72D6"/>
<path d="M22.756 12.2524C22.6001 12.0961 22.3885 12.0083 22.1678 12.0083C21.9471 12.0083 21.7355 12.0961 21.5796 12.2524L17.5 16.3237L13.4204 12.244C13.2645 12.0878 13.0529 12 12.8322 12C12.6115 12 12.3999 12.0878 12.244 12.244C11.9187 12.5694 11.9187 13.095 12.244 13.4204L16.3237 17.5L12.244 21.5796C11.9187 21.905 11.9187 22.4306 12.244 22.756C12.5694 23.0813 13.095 23.0813 13.4204 22.756L17.5 18.6763L21.5796 22.756C21.905 23.0813 22.4306 23.0813 22.756 22.756C23.0813 22.4306 23.0813 21.905 22.756 21.5796L18.6763 17.5L22.756 13.4204C23.073 13.1033 23.073 12.5694 22.756 12.2524Z" fill="white"/>
</svg>
